<mxfile host="app.diagrams.net" modified="2023-11-27T14:29:02.316Z" agent="Mozilla/5.0 (Windows NT 10.0; Win64; x64) AppleWebKit/537.36 (KHTML, like Gecko) Chrome/109.0.0.0 Safari/537.36" version="22.1.4" etag="5XPv8X_6K9q3s3VTnPDZ" type="github">
  <diagram name="Page-1" id="P3CTmTWMg6Tq76BW2d_o">
    <mxGraphModel>
      <root>
        <mxCell id="0" />
        <mxCell id="1" parent="0" />
      </root>
    </mxGraphModel>
  </diagram>
</mxfile>
